#!OML:ASF X:\für Bonn\!DataBase\2005_08_12_Daniel\c3d\Daniel.ASF
:FULLY-SPECIFIED
:DEGREES
290
root 0.968769 17.3562 -17.3706 184.433 162.389 -176.704
lowerback 56.0378 -2.84766 5.97592
upperback 11.1891 -0.135736 -4.42274
thorax -8.6877 0.47167 -7.57158
lowerneck 1.76079 -5.6782 -4.78054
upperneck 0.42408 -7.64442 5.00159
head 0.233252 -3.83856 2.3884
rclavicle -5.32743e-014 6.59965e-014
rhumerus 2.40834 9.6709 -77.1704
rradius 15.863
rwrist 31.5194
rhand -24.4444 17.8171
rfingers 7.12502
rthumb 2.04815 -12.1528
lclavicle -5.32743e-014 6.59965e-014
lhumerus -19.9845 6.69222 85.9983
lradius 37.8472
lwrist -4.0186
lhand -13.4776 -8.24769
lfingers 7.12502
lthumb 12.6327 21.3503
rfemur -26.6708 -2.23446 14.5774
rtibia 44.1636
rfoot -22.0044 -9.93047
rtoes -15.0622
lfemur -29.2942 -11.1079 -16.2967
ltibia 42.2189
lfoot -16.6929 -5.83774
ltoes -14.2458
291
root 0.96105 17.3707 -17.3302 183.993 162.652 -176.819
lowerback 55.2293 -2.77518 5.86533
upperback 11.1864 -0.18334 -4.43043
thorax -8.64165 0.433503 -7.51041
lowerneck 1.75594 -5.55393 -4.68182
upperneck 0.36442 -7.47642 4.93133
head 0.199581 -3.75466 2.3505
rclavicle -7.4743e-014 8.0309e-014
rhumerus 1.56108 9.48048 -77.5897
rradius 15.8407
rwrist 31.7694
rhand -24.3888 17.788
rfingers 7.12502
rthumb 2.10182 -12.1814
lclavicle -7.4743e-014 8.0309e-014
lhumerus -19.9318 7.26393 85.611
lradius 37.5471
lwrist -4.41806
lhand -13.4558 -8.48353
lfingers 7.12502
lthumb 12.6538 21.1132
rfemur -25.7942 -1.9304 14.7541
rtibia 43.6071
rfoot -22.0272 -9.89839
rtoes -15.0562
lfemur -28.395 -11.1996 -16.2041
ltibia 41.8429
lfoot -16.843 -5.51507
ltoes -14.3328
292
root 0.952656 17.3843 -17.2872 183.584 162.952 -176.912
lowerback 54.343 -2.66303 5.70521
upperback 11.2232 -0.211153 -4.42409
thorax -8.53514 0.405915 -7.4185
lowerneck 1.51907 -5.43485 -4.58604
upperneck 0.464227 -7.3107 4.79596
head 0.253411 -3.66881 2.28099
rclavicle -1.07344e-014 -1.43125e-014
rhumerus 0.766089 9.395 -77.9551
rradius 15.8627
rwrist 31.9304
rhand -24.3184 17.7147
rfingers 7.12502
rthumb 2.16981 -12.254
lclavicle -1.07344e-014 -1.43125e-014
lhumerus -19.8466 7.76515 85.2678
lradius 37.2739
lwrist -4.77015
lhand -13.4806 -8.71975
lfingers 7.12502
lthumb 12.6298 20.8784
rfemur -24.9588 -1.57396 14.9123
rtibia 43.0722
rfoot -22.0337 -9.88512
rtoes -14.9292
lfemur -27.4996 -11.2518 -16.1408
ltibia 41.4625
lfoot -17.0262 -5.17754
ltoes -14.4941
293
root 0.942759 17.3964 -17.2439 183.178 163.22 -177.004
lowerback 53.4685 -2.59076 5.59686
upperback 11.2289 -0.255546 -4.43388
thorax -8.45777 0.370312 -7.36143
lowerneck 1.30235 -5.31448 -4.54624
upperneck 0.617842 -7.14581 4.71403
head 0.325359 -3.58363 2.23907
rclavicle -4.53229e-014 -5.76476e-015
rhumerus -0.0868991 9.41663 -78.3136
rradius 15.9245
rwrist 31.933
rhand -24.191 17.6258
rfingers 7.12502
rthumb 2.29291 -12.3417
lclavicle -4.53229e-014 -5.76476e-015
lhumerus -19.7969 8.27319 84.9148
lradius 36.9785
lwrist -5.17947
lhand -13.545 -9.0007
lfingers 7.12502
lthumb 12.5678 20.6013
rfemur -24.1116 -1.18535 15.0832
rtibia 42.5405
rfoot -22.0991 -9.94637
rtoes -14.7541
lfemur -26.6266 -11.3278 -16.0642
ltibia 41.0963
lfoot -17.2011 -4.86981
ltoes -14.5755
294
root 0.932584 17.4071 -17.2001 182.789 163.489 -177.077
lowerback 52.5641 -2.52845 5.49707
upperback 11.2461 -0.306859 -4.45524
thorax -8.35703 0.333445 -7.31779
lowerneck 0.953028 -5.19457 -4.55609
upperneck 0.925389 -6.98059 4.66191
head 0.471489 -3.49665 2.20971
rclavicle -6.59965e-014 4.19436e-014
rhumerus -0.905379 9.1648 -78.7238
rradius 15.9588
rwrist 32.1362
rhand -24.0413 17.5596
rfingers 7.12502
rthumb 2.43749 -12.4062
lclavicle -6.59965e-014 4.19436e-014
lhumerus -19.7507 8.6606 84.5703
lradius 36.7551
lwrist -5.5129
lhand -13.6411 -9.16069
lfingers 7.12502
lthumb 12.4752 20.447
rfemur -23.2901 -0.780985 15.2334
rtibia 42.0274
rfoot -22.1963 -9.97592
rtoes -14.5699
lfemur -25.7556 -11.4027 -16.0065
ltibia 40.7325
lfoot -17.3863 -4.54341
ltoes -14.7526
295
root 0.920876 17.4171 -17.155 182.436 163.773 -177.149
lowerback 51.6346 -2.45132 5.38735
upperback 11.2499 -0.343766 -4.46539
thorax -8.25716 0.301412 -7.26347
lowerneck 0.59358 -5.07091 -4.56827
upperneck 1.25173 -6.80955 4.57554
head 0.623945 -3.40683 2.17049
rclavicle 8.74653e-015 -8.94531e-015
rhumerus -1.71534 8.72008 -79.1254
rradius 15.9784
rwrist 32.5818
rhand -23.8836 17.5022
rfingers 7.12502
rthumb 2.58982 -12.4619
lclavicle 8.74653e-015 -8.94531e-015
lhumerus -19.7052 9.04444 84.2485
lradius 36.5214
lwrist -5.82517
lhand -13.7512 -9.31231
lfingers 7.12502
lthumb 12.369 20.3018
rfemur -22.508 -0.332616 15.3942
rtibia 41.5193
rfoot -22.2894 -10.0373
rtoes -14.2889
lfemur -24.9356 -11.4339 -15.9412
ltibia 40.3933
lfoot -17.5615 -4.268
ltoes -14.9128
296
root 0.908624 17.4266 -17.1076 182.079 164.043 -177.24
lowerback 50.703 -2.40463 5.3225
upperback 11.2525 -0.392967 -4.4931
thorax -8.15025 0.265464 -7.24423
lowerneck 0.241764 -4.94511 -4.63331
upperneck 1.61027 -6.63702 4.56418
head 0.790703 -3.31651 2.16635
rclavicle 2.66371e-014 -7.09661e-014
rhumerus -2.5221 8.36202 -79.5351
rradius 16.0235
rwrist 32.859
rhand -23.6281 17.4719
rfingers 7.12502
rthumb 2.83657 -12.489
lclavicle 2.66371e-014 -7.09661e-014
lhumerus -19.6559 9.42691 83.9257
lradius 36.3104
lwrist -6.14578
lhand -13.8923 -9.43419
lfingers 7.12502
lthumb 12.233 20.1881
rfemur -21.7176 0.122613 15.597
rtibia 41.0306
rfoot -22.4154 -10.1373
rtoes -14.1104
lfemur -24.1122 -11.5046 -15.8441
ltibia 40.0592
lfoot -17.7455 -3.99064
ltoes -14.9182
